<?xml version="1.0" standalone="no"?>
<!DOCTYPE svg PUBLIC "-//W3C//DTD SVG 20010904//EN"
 "http://www.w3.org/TR/2001/REC-SVG-20010904/DTD/svg10.dtd">
<svg version="1.0" xmlns="http://www.w3.org/2000/svg"
 width="200.000000pt" height="200.000000pt" viewBox="0 0 200.000000 200.000000"
 preserveAspectRatio="xMidYMid meet">
<metadata>
Created by potrace 1.14, written by Peter Selinger 2001-2017
</metadata>
<g transform="translate(0.000000,200.000000) scale(0.100000,-0.100000)"
fill="#000000" stroke="none">
<path d="M910 1579 c-13 -6 -32 -17 -41 -25 -14 -12 -21 -12 -50 -1 -46 19
-80 8 -104 -33 -16 -28 -25 -34 -45 -32 -14 2 -29 8 -35 13 -13 13 -49 11 -63
-3 -9 -9 -15 -9 -24 0 -22 22 -53 12 -97 -33 -50 -50 -61 -98 -34 -153 22 -45
54 -62 162 -84 115 -23 133 -39 126 -108 -5 -48 -28 -74 -57 -64 -24 7 -86
-24 -93 -47 -4 -11 -1 -35 5 -53 14 -43 55 -61 94 -41 l25 14 -6 -89 c-3 -48
-3 -104 1 -123 7 -39 64 -107 89 -107 9 0 19 -5 22 -10 3 -6 17 -10 30 -10 18
0 22 -4 18 -19 -4 -16 -15 -21 -52 -23 -42 -3 -46 -6 -49 -30 -4 -32 15 -44
84 -54 27 -3 52 -8 56 -10 11 -7 36 7 43 24 4 9 9 33 12 52 3 19 8 39 13 43 4
5 47 9 96 9 81 0 88 -1 96 -21 7 -19 3 -24 -22 -33 -42 -14 -57 -44 -35 -68
18 -20 41 -19 108 7 65 25 73 35 59 80 -13 42 -12 45 20 49 84 10 313 59 355
75 13 5 28 20 35 34 9 21 8 28 -7 45 -10 11 -26 20 -36 20 -10 0 -21 9 -24 20
-8 26 -33 50 -50 50 -8 0 -21 -12 -29 -27 l-14 -28 -9 35 c-11 42 -42 51 -72
21 -27 -27 -31 -26 -31 2 -1 51 -33 63 -78 30 -25 -19 -36 -22 -46 -14 -16 13
-27 61 -15 61 5 0 18 9 29 20 36 36 19 120 -25 120 -9 0 -14 31 -17 123 -3 99
-8 130 -25 163 -26 48 -92 111 -129 120 -18 5 -31 19 -45 51 -14 32 -28 48
-54 58 -19 8 -36 15 -37 14 -2 0 -14 -5 -28 -10z"/>
</g>
</svg>
