<?xml version="1.0" standalone="no"?>
<!DOCTYPE svg PUBLIC "-//W3C//DTD SVG 20010904//EN"
 "http://www.w3.org/TR/2001/REC-SVG-20010904/DTD/svg10.dtd">
<svg version="1.0" xmlns="http://www.w3.org/2000/svg"
 width="200.000000pt" height="200.000000pt" viewBox="0 0 200.000000 200.000000"
 preserveAspectRatio="xMidYMid meet">
<metadata>
Created by potrace 1.14, written by Peter Selinger 2001-2017
</metadata>
<g transform="translate(0.000000,200.000000) scale(0.100000,-0.100000)"
fill="#000000" stroke="none">
<path d="M870 1986 c-146 -44 -249 -129 -307 -256 -23 -50 -48 -148 -40 -156
3 -3 2 -17 -2 -31 -6 -23 -12 -25 -74 -28 -36 -2 -71 -6 -77 -10 -5 -3 -19 -8
-30 -10 -12 -2 -46 -18 -77 -36 -201 -115 -278 -363 -179 -572 113 -238 385
-322 625 -192 l47 26 47 -26 c26 -15 47 -30 47 -34 0 -4 -10 -16 -22 -28 -13
-11 -34 -33 -47 -49 -13 -16 -39 -46 -59 -66 -43 -46 -49 -81 -16 -107 26 -21
20 -22 196 25 96 25 100 21 46 -36 -12 -14 -39 -46 -58 -70 -19 -25 -42 -54
-52 -65 -162 -195 -160 -192 -152 -222 9 -33 47 -48 83 -34 16 7 32 18 34 25
3 7 62 82 132 167 70 85 142 172 160 194 18 22 51 62 74 90 42 51 48 72 31
106 -14 26 -52 24 -182 -9 l-106 -28 26 32 c36 42 56 52 127 58 37 4 84 18
123 37 l64 31 66 -30 c86 -40 133 -50 215 -47 73 3 123 16 181 47 158 85 251
248 240 421 -10 154 -109 305 -239 366 -64 30 -163 50 -223 45 l-49 -4 -1 38
c-6 168 -111 334 -254 401 -35 16 -76 33 -93 36 -62 14 -181 14 -225 1z"/>
</g>
</svg>
